<?xml version="1.0" encoding="UTF-8" standalone="no"?>
<svg width="100px" height="73px" viewBox="0 0 100 73" version="1.1" xmlns="http://www.w3.org/2000/svg" xmlns:xlink="http://www.w3.org/1999/xlink">
    <!-- Generator: Sketch 41 (35326) - http://www.bohemiancoding.com/sketch -->
    <title>LOGO - Big</title>
    <desc>Created with Sketch.</desc>
    <defs></defs>
    <g id="Symbols" stroke="none" stroke-width="1" fill="none" fill-rule="evenodd">
        <g id="HEADER---Black" transform="translate(-670.000000, -30.000000)" fill="#1A1918">
            <g id="LOGO---Big">
                <g transform="translate(670.000000, 30.000000)">
                    <g id="LOGO">
                        <path d="M61.7174512,0.232032147 C61.7174512,0.232032147 61.5799082,0.0115958668 61.336682,0.0115958668 C61.0934558,0.0115958668 60.9558553,0.232032147 60.9558553,0.232032147 L36.0661883,30.104535 L77.3301378,30.104535 L61.7174512,0.232032147 Z" id="Fill-1"></path>
                        <path d="M35.9823192,67.1245465 C32.5356487,67.1245465 29.7419059,64.3308266 29.7419059,60.8845006 C29.7419059,57.4378875 32.5356487,54.6440873 35.9823192,54.6440873 C39.4285878,54.6440873 42.2227325,57.4378875 42.2227325,60.8845006 C42.2227325,64.3308266 39.4285878,67.1245465 35.9823192,67.1245465 M35.9823192,49.1654994 C29.5101033,49.1654994 24.263318,54.4123421 24.263318,60.8845006 C24.263318,67.356349 29.5101033,72.6031343 35.9823192,72.6031343 C42.454535,72.6031343 47.7013203,67.356349 47.7013203,60.8845006 C47.7013203,54.4123421 42.454535,49.1654994 35.9823192,49.1654994" id="Fill-3"></path>
                        <path d="M58.3829506,72.3256085 L58.3829506,41.7623995 L52.0907577,41.7623995 L52.0907577,67.3361137 C52.0907577,70.4333008 53.5453502,71.9323823 55.2368542,72.3254937 C56.6699196,72.6585017 58.3829506,72.3256085 58.3829506,72.3256085" id="Fill-4"></path>
                        <path d="M84.7599885,64.7850172 L87.4846728,58.886969 L90.2097589,64.7850172 L84.7599885,64.7850172 Z M87.7012055,48.8037887 C87.7012055,48.8037887 87.6006315,48.6834673 87.484845,48.6834673 C87.3365672,48.6834673 87.2685419,48.8037887 87.2685419,48.8037887 L74.986969,72.3254765 L81.1553387,72.3254765 L82.7711825,68.86124 L92.1982204,68.86124 L93.8144087,72.3254765 L99.9827784,72.3254765 L87.7012055,48.8037887 Z" id="Fill-5"></path>
                        <path d="M17.7860563,49.4820321 L12.0451263,61.2010333 L6.30413892,49.4820321 L0.0355396096,49.4820321 L11.8372044,72.0848278 C11.8372044,72.0848278 11.9122905,72.2051493 12.0451263,72.2051493 C12.1779047,72.2051493 12.2529908,72.0848278 12.2529908,72.0848278 L24.0546556,49.4820321 L17.7860563,49.4820321 Z" id="Fill-6"></path>
                        <path d="M71.3652698,72.3252755 L71.3664753,72.3254478 L71.3664753,54.2874282 L75.8246269,54.2874282 L75.8246269,49.0648106 L71.3664753,49.0648106 L71.3664753,43.3354765 L71.3664753,41.7623995 L65.073938,41.7623995 L65.073938,43.3354765 L65.073938,49.0648106 L61.5482778,49.0648106 L61.5482778,54.2874282 L65.073938,54.2874282 L65.0730769,67.3361251 C65.0730769,70.4333123 66.5276693,71.9323938 68.2191734,72.3254478 C69.6522388,72.6585132 71.3652698,72.32562 71.3652698,72.32562 L71.3652698,72.3252755 Z" id="Fill-7"></path>
                    </g>
                </g>
            </g>
        </g>
    </g>
</svg>
